<?xml version="1.0" encoding="UTF-8" standalone="no"?>
<svg
   width="703"
   height="105"
   viewBox="0 0 703 105"
   fill="none"
   version="1.1"
   id="svg4"
   sodipodi:docname="logo.svg"
   inkscape:version="1.4.2 (f4327f4, 2025-05-13)"
   inkscape:export-filename="logo.png"
   inkscape:export-xdpi="96"
   inkscape:export-ydpi="96"
   xmlns:inkscape="http://www.inkscape.org/namespaces/inkscape"
   xmlns:sodipodi="http://sodipodi.sourceforge.net/DTD/sodipodi-0.dtd"
   xmlns="http://www.w3.org/2000/svg"
   xmlns:svg="http://www.w3.org/2000/svg">
  <defs
     id="defs4" />
  <sodipodi:namedview
     id="namedview4"
     pagecolor="#424242"
     bordercolor="#000000"
     borderopacity="0.25"
     inkscape:showpageshadow="2"
     inkscape:pageopacity="0.0"
     inkscape:pagecheckerboard="0"
     inkscape:deskcolor="#d1d1d1"
     inkscape:zoom="0.90928098"
     inkscape:cx="358.52504"
     inkscape:cy="48.389883"
     inkscape:window-width="1920"
     inkscape:window-height="1057"
     inkscape:window-x="-8"
     inkscape:window-y="-8"
     inkscape:window-maximized="1"
     inkscape:current-layer="svg4" />
  <g
     id="g1"
     transform="translate(0,0.44916169)">
    <path
       d="M 28.9269,87.4842 C 41.8302,95.0154 60.9203,101.116 77.6737,103.062 126.48,108.73 175.435,90.6938 189.512,61.8573 199.122,42.17 191.19,20.3908 169,5.53665 c -7.021,-4.699769 -10.301,-6.486373 -6,-3.26822 6.284,4.70226 13.55,13.25967 16.713,19.68417 2.907,5.9058 3.282,7.6042 3.245,14.6984 -0.032,6.1039 -0.578,9.2052 -2.284,12.9754 -6.819,15.0685 -22.412,27.1266 -43.8,33.8719 C 84.1237,100.134 21.2651,81.1307 10.88,45.4074 6.66925,30.9227 14.0307,14.3117 30,2.26336 L 33,0 29,2.27454 C 17.0619,9.06326 7.49406,18.8109 2.59864,29.172 0.340348,33.9516 0,35.9818 0,44.672 0,53.8801 0.257418,55.2155 3.25056,61.5354 7.45862,70.4207 18.0764,81.151 28.9269,87.4842 Z"
       fill="#fbfbfb"
       id="path2"
       style="fill:#1c191a;fill-opacity:1" />
    <path
       d="m 32.9827,48.0394 c 6.5002,11.7753 22.3858,21.3648 42.5173,25.6658 4.5201,0.9657 11.6783,1.2918 23.5,1.0703 15.036,-0.2815 18.035,-0.6301 25.963,-3.0181 28.749,-8.6602 43.408,-26.933 36.909,-46.0077 C 160.072,20.467 150.95,9.97127 145.349,6.73909 L 142,4.80613 l 3.707,4.1379 C 156.656,21.167 156.289,34.7185 144.704,45.9527 128.591,61.5775 93.997,66.6798 67.61,57.3233 49.7826,51.0018 39.1653,39.7347 39.1974,27.172 39.2152,20.2339 41.193,15.5654 46.6737,9.52431 50.9957,4.76052 50.9966,4.75786 47.5904,6.8662 42.1206,10.2519 34.7392,18.0533 32.2767,23.0511 c -3.5304,7.1655 -3.2282,17.8613 0.706,24.9883 z"
       fill="#fbfbfb"
       id="path3"
       style="fill:#1c191a;fill-opacity:1" />
    <path
       d="m 61.8924,31.5994 c 1.6656,6.6361 11.4697,13.5183 23.0094,16.152 3.7957,0.8662 9.1453,1.2111 14.1684,0.9141 C 119.751,47.4417 133.818,36.4952 130.508,24.2014 129.5,20.4591 123.785,14.2462 119.5,12.2351 c -2.345,-1.1007 -2.381,-1.078 -0.58,0.3662 3.336,2.6755 5.567,6.9467 5.573,10.6729 C 124.524,39.9041 89.5185,46.9973 73.5848,33.59 66.59,27.7043 65.98,21.1574 71.7993,14.4282 L 75,10.727 71.5,12.883 c -7.2923,4.4917 -11.2451,12.1922 -9.6076,18.7164 z"
       fill="#fbfbfb"
       id="path4"
       style="fill:#1c191a;fill-opacity:1" />
  </g>
  <path
     style="font-weight:300;font-size:109.86px;font-family:Comfortaa;-inkscape-font-specification:'Comfortaa Light';letter-spacing:4.52px;fill:#1c191a;stroke-width:3.77953;stroke-linecap:round;fill-opacity:1"
     d="m 291.85662,84.847822 q 0.87888,1.53804 0.87888,2.52678 0,1.20846 -0.98874,1.86762 -0.87888,0.65916 -2.63664,0.65916 -1.0986,0 -1.75776,-0.43944 -0.65916,-0.43944 -1.20846,-1.31832 l -20.21424,-32.29884 h -1.97748 -17.68746 v 30.7608 q 0,1.42818 -0.87888,2.41692 -0.87888,0.87888 -2.41692,0.87888 -1.42818,0 -2.41692,-0.87888 -0.87888,-0.98874 -0.87888,-2.41692 V 7.396522 q 0,-1.53804 0.87888,-2.41692 0.98874,-0.87888 2.41692,-0.87888 h 20.98326 q 7.90992,0 14.17194,3.2958 6.26202,3.2958 9.77754,9.22824 3.51552,5.93244 3.51552,13.51278 0,9.00852 -5.05356,15.60012 -4.9437,6.48174 -13.40292,8.89866 z m -27.90444,-35.59464 q 6.0423,0 10.76628,-2.41692 4.72398,-2.41692 7.36062,-6.81132 2.7465,-4.3944 2.7465,-9.8874 0,-5.60286 -2.7465,-9.99726 -2.63664,-4.50426 -7.36062,-6.92118 -4.72398,-2.52678 -10.76628,-2.52678 h -17.68746 v 38.56086 z m 50.3316,40.6482 q -1.42818,0 -2.41692,-0.87888 -0.87888,-0.98874 -0.87888,-2.41692 V 7.396522 q 0,-1.42818 0.87888,-2.30706 0.98874,-0.98874 2.41692,-0.98874 1.42818,0 2.30706,0.98874 0.98874,0.87888 0.98874,2.30706 v 79.20906 q 0,1.42818 -0.98874,2.41692 -0.87888,0.87888 -2.30706,0.87888 z m 33.08362,0 q -1.42818,0 -2.41692,-0.87888 -0.87888,-0.98874 -0.87888,-2.41692 V 7.396522 q 0,-1.53804 0.87888,-2.41692 0.98874,-0.87888 2.41692,-0.87888 h 21.972 q 7.90992,0 14.17194,3.51552 6.26202,3.51552 9.77754,9.77754 3.51552,6.26202 3.51552,14.17194 0,8.01978 -3.51552,14.2818 -3.51552,6.26202 -9.77754,9.77754 -6.26202,3.51552 -14.17194,3.51552 h -18.6762 v 27.465 q 0,1.42818 -0.87888,2.41692 -0.87888,0.87888 -2.41692,0.87888 z m 21.972,-37.3524 q 6.0423,0 10.76628,-2.63664 4.72398,-2.7465 7.36062,-7.47048 2.7465,-4.83384 2.7465,-10.87614 0,-6.0423 -2.7465,-10.76628 -2.63664,-4.72398 -7.36062,-7.36062 -4.72398,-2.7465 -10.76628,-2.7465 h -18.6762 v 41.85666 z m 49.01325,37.3524 q -1.42818,0 -2.41692,-0.87888 -0.87888,-0.98874 -0.87888,-2.41692 V 7.396522 q 0,-1.53804 0.87888,-2.41692 0.98874,-0.87888 2.41692,-0.87888 h 21.972 q 7.90992,0 14.17194,3.51552 6.26202,3.51552 9.77754,9.77754 3.51552,6.26202 3.51552,14.17194 0,8.01978 -3.51552,14.2818 -3.51552,6.26202 -9.77754,9.77754 -6.26202,3.51552 -14.17194,3.51552 h -18.6762 v 27.465 q 0,1.42818 -0.87888,2.41692 -0.87888,0.87888 -2.41692,0.87888 z m 21.972,-37.3524 q 6.0423,0 10.76628,-2.63664 4.72398,-2.7465 7.36062,-7.47048 2.7465,-4.83384 2.7465,-10.87614 0,-6.0423 -2.7465,-10.76628 -2.63664,-4.72398 -7.36062,-7.36062 -4.72398,-2.7465 -10.76628,-2.7465 h -18.6762 v 41.85666 z m 49.01326,37.3524 q -1.31832,0 -2.30706,-0.87888 -0.98874,-0.98874 -0.98874,-2.41692 V 7.396522 q 0,-1.42818 0.98874,-2.30706 0.98874,-0.98874 2.30706,-0.98874 1.42818,0 2.30706,0.98874 0.98874,0.87888 0.98874,2.30706 v 76.57242 h 45.15246 q 1.42818,0 2.30706,0.87888 0.98874,0.76902 0.98874,2.08734 0,1.31832 -0.98874,2.1972 -0.87888,0.76902 -2.30706,0.76902 z m 73.29229,0 q -1.42818,0 -2.41692,-0.87888 -0.87888,-0.98874 -0.87888,-2.41692 V 7.396522 q 0,-1.42818 0.87888,-2.30706 0.98874,-0.98874 2.41692,-0.98874 h 52.84266 q 1.31832,0 2.30706,0.98874 0.98874,0.87888 0.98874,2.30706 0,1.31832 -0.98874,2.30706 -0.98874,0.98874 -2.30706,0.98874 H 565.926 v 32.958 h 36.36366 q 1.42818,0 2.30706,0.98874 0.98874,0.87888 0.98874,2.30706 0,1.42818 -0.98874,2.41692 -0.87888,0.98874 -2.30706,0.98874 H 565.926 v 32.958 h 49.54686 q 1.31832,0 2.30706,0.98874 0.98874,0.98874 0.98874,2.30706 0,1.42818 -0.98874,2.41692 -0.98874,0.87888 -2.30706,0.87888 z m 128.77177,-5.05356 q 0.87888,1.53804 0.87888,2.52678 0,1.20846 -0.98874,1.86762 -0.87888,0.65916 -2.63664,0.65916 -1.0986,0 -1.75776,-0.43944 -0.65916,-0.43944 -1.20846,-1.31832 l -20.21424,-32.29884 h -1.97748 -17.68746 v 30.7608 q 0,1.42818 -0.87888,2.41692 -0.87888,0.87888 -2.41692,0.87888 -1.42818,0 -2.41692,-0.87888 -0.87888,-0.98874 -0.87888,-2.41692 V 7.396522 q 0,-1.53804 0.87888,-2.41692 0.98874,-0.87888 2.41692,-0.87888 h 20.98326 q 7.90992,0 14.17194,3.2958 6.26202,3.2958 9.77754,9.22824 3.51552,5.93244 3.51552,13.51278 0,9.00852 -5.05356,15.60012 -4.9437,6.48174 -13.40292,8.89866 z m -27.90444,-35.59464 q 6.0423,0 10.76628,-2.41692 4.72398,-2.41692 7.36062,-6.81132 2.7465,-4.3944 2.7465,-9.8874 0,-5.60286 -2.7465,-9.99726 -2.63664,-4.50426 -7.36062,-6.92118 -4.72398,-2.52678 -10.76628,-2.52678 h -17.68746 v 38.56086 z"
     id="text1"
     aria-label="RIPPLER" />
</svg>
